<svg width="19.987793" height="19.904541" viewBox="0 0 19.9878 19.9045" fill="none" xmlns="http://www.w3.org/2000/svg" xmlns:xlink="http://www.w3.org/1999/xlink">
	<desc>
			Created with Pixso.
	</desc>
	<defs/>
	<path id="Path" d="M19.5015 11.3423C19.2974 11.2911 19.0928 11.3423 18.9136 11.4701C18.249 12.0323 17.4824 12.4924 16.6392 12.7992C15.8467 13.1058 14.9775 13.2592 14.0576 13.2592C11.9873 13.2592 10.0957 12.4158 8.74121 11.0612C7.38672 9.70654 6.54297 7.81506 6.54297 5.74487C6.54297 4.87585 6.69629 4.03235 6.95215 3.26562C7.2334 2.44775 7.64209 1.70654 8.17871 1.0675C8.40918 0.786377 8.35791 0.377441 8.07666 0.147339C7.89795 0.0195312 7.69336 -0.0314941 7.48877 0.0195312C5.31641 0.607422 3.4248 1.91101 2.07031 3.64893C0.766602 5.36145 0 7.48279 0 9.7832C0 12.5691 1.12451 15.0995 2.96484 16.9397C4.80518 18.78 7.31006 19.9045 10.1216 19.9045C12.4727 19.9045 14.6455 19.0867 16.3833 17.7321C18.147 16.3518 19.4248 14.3838 19.9614 12.1346C20.064 11.7767 19.8594 11.4189 19.5015 11.3423Z" fill="#7E88C3" fill-opacity="1.000000" fill-rule="nonzero"/>
</svg>
