<svg width="242.000000" height="200.000000" viewBox="0 0 242 200" fill="none" xmlns="http://www.w3.org/2000/svg" xmlns:xlink="http://www.w3.org/1999/xlink">
	<desc>
			Created with Pixso.
	</desc>
	<defs/>
	<path id="Path" d="M31.13 83.87L116.17 30.2L201.2 83.87L201.2 162.18L31.13 162.18L31.13 83.87Z" fill="#E6E7E8" fill-opacity="1.000000" fill-rule="nonzero"/>
	<path id="Shape" d="M201.632 162.223C201.611 162.437 201.422 162.595 201.207 162.577L31.136 162.577C30.9187 162.577 30.7422 162.401 30.7422 162.183L30.7422 83.8789C30.7395 83.7444 30.8083 83.6185 30.9233 83.5485L115.959 29.9109C116.087 29.8329 116.248 29.8329 116.376 29.9109L201.443 83.5878C201.56 83.6571 201.632 83.7826 201.632 83.9183L201.632 162.223ZM200.852 161.79L31.5063 161.79L31.5063 84.0992L116.171 30.6976L200.852 84.0992L200.852 161.79Z" clip-rule="evenodd" fill="#231F20" fill-opacity="1.000000" fill-rule="evenodd"/>
	<path id="Path" d="M136.88 62.8C139.71 58.13 140.43 52.46 140.17 47.01C139.98 41.05 138.41 35.22 135.57 29.98C134.42 27.72 132.74 25.79 130.66 24.34C128.11 22.77 126.37 23.83 123.87 23.41C121.76 23.04 119.55 21.54 117.21 21.16C111.82 20.23 106.27 21.39 101.7 24.4C93.69 29.8 90 40.13 81.73 45.15C73.63 50.05 63.25 48.58 54.16 51.28C50.33 52.43 46.75 54.32 43.64 56.84C41.49 58.48 39.73 60.58 38.49 62.98C36.35 67.44 36.91 72.74 38.49 77.44C40.06 82.27 42.73 86.88 46.85 89.88C50.31 92.37 54.56 93.52 58.75 94.28C64.46 95.31 70.38 95.69 76.08 94.46C80.29 93.61 84.21 91.7 87.48 88.92C88.88 87.67 89.65 85.96 90.96 84.72C92.77 83.01 95.58 81.96 97.69 80.66C100.99 78.6 104.3 76.41 108.06 75.44C117.62 72.95 131.12 72.28 136.88 62.8Z" fill="#FFFFFF" fill-opacity="1.000000" fill-rule="nonzero"/>
	<path id="Shape" d="M68.4709 95.6262C65.1826 95.5983 61.9036 95.277 58.6726 94.6663C55.0334 94.0133 50.3784 92.9117 46.6213 90.2129C42.8643 87.5142 39.9421 83.1315 38.1304 77.6238C36.8386 73.6897 35.7676 67.8907 38.1855 62.9023C39.4387 60.4371 41.2317 58.2856 43.4314 56.6078C46.5774 54.0592 50.1924 52.1506 54.0725 50.9899C57.7446 50.021 61.4954 49.3785 65.281 49.0699C71.1567 48.4248 76.7097 47.811 81.5461 44.892C85.7678 42.3427 88.8477 38.2827 91.8328 34.3564C94.6604 30.6348 97.5906 26.7872 101.497 24.1278C106.137 21.0667 111.767 19.8773 117.25 20.7996C118.505 21.0643 119.721 21.4818 120.874 22.0427C121.854 22.5007 122.882 22.8516 123.938 23.0891C124.736 23.2007 125.545 23.2192 126.348 23.1443C127.913 22.9188 129.508 23.2502 130.853 24.0806C132.988 25.547 134.721 27.5244 135.894 29.8323C138.764 35.1251 140.352 41.0156 140.533 47.0321C140.841 53.4841 139.746 58.8345 137.194 63.0125C132.468 70.739 122.796 72.714 114.242 74.4607C112.083 74.9014 110.051 75.3105 108.153 75.8062C104.758 76.6796 101.686 78.5994 98.7012 80.4563L97.9136 80.9678C97.126 81.432 96.3381 81.8647 95.5112 82.2897C93.9749 82.9922 92.5413 83.9001 91.25 84.9884C90.6655 85.5859 90.1382 86.2366 89.6746 86.9319C89.1265 87.7563 88.4871 88.5165 87.7686 89.1979C84.4521 92.0576 80.4531 94.0143 76.1584 94.8788C73.6306 95.4052 71.053 95.6558 68.4709 95.6262ZM101.907 24.7651C105.377 22.4561 109.458 21.2341 113.627 21.2559C114.829 21.265 116.028 21.3756 117.211 21.5863C118.398 21.8339 119.551 22.2222 120.645 22.7429C121.672 23.2273 122.75 23.5942 123.859 23.8367C124.712 23.9567 125.576 23.9805 126.435 23.9075C127.847 23.672 129.298 23.9512 130.522 24.6942C132.551 26.105 134.197 27.9978 135.312 30.202C138.126 35.3954 139.683 41.176 139.856 47.0793C140.156 53.3896 139.069 58.6299 136.627 62.6584C132.09 70.1174 122.559 72.0609 114.139 73.7683C111.958 74.209 109.941 74.626 108.019 75.1217C104.514 76.0107 101.395 77.9622 98.3782 79.8427L97.5432 80.3619C96.8108 80.8104 96.0232 81.2195 95.1804 81.6523C93.5828 82.3844 92.0933 83.3323 90.7537 84.4691C90.1301 85.0958 89.5684 85.7809 89.0759 86.5149C88.5566 87.2957 87.9517 88.0162 87.2722 88.6628C84.0493 91.4374 80.1646 93.3344 75.9932 94.1707C71.0703 95.2407 65.4622 95.1777 58.8301 93.9896C55.2698 93.3445 50.6858 92.2507 47.0703 89.6464C43.4551 87.042 40.6116 82.809 38.8472 77.3877C37.5791 73.5717 36.563 67.993 38.8472 63.225C40.0627 60.8672 41.7905 58.8108 43.9041 57.2057C46.9771 54.7102 50.509 52.8392 54.301 51.698C57.929 50.7407 61.635 50.1088 65.3755 49.8096C71.0544 49.1802 76.946 48.5349 81.9163 45.5293C86.2561 42.9171 89.3833 38.7941 92.4077 34.8127C95.2039 31.1383 98.0869 27.338 101.907 24.7651Z" clip-rule="evenodd" fill="#231F20" fill-opacity="1.000000" fill-rule="evenodd"/>
	<path id="Path" d="M169.02 55.08L164.88 70.66L174.85 72.44L180.54 51.63C180.54 51.63 171.67 44.85 170.3 44.8C168.93 44.75 169.02 55.08 169.02 55.08Z" fill="#FFFFFF" fill-opacity="1.000000" fill-rule="nonzero"/>
	<path id="Shape" d="M174.86 72.8398L174.789 72.8398L164.825 71.0852C164.716 71.0671 164.62 71.0034 164.562 70.9102C164.503 70.817 164.487 70.7031 164.518 70.5974L168.629 55.0891C168.629 53.421 168.629 45.7732 169.795 44.6481C169.929 44.5054 170.119 44.4279 170.315 44.4355C171.725 44.4828 179.271 50.203 180.775 51.3439C180.901 51.4423 180.957 51.6061 180.917 51.7609L175.222 72.5723C175.171 72.73 175.025 72.8376 174.86 72.8398ZM174.592 71.9979L165.408 70.3771L169.441 55.2151C169.445 55.181 169.445 55.1467 169.441 55.1128C169.409 50.7065 169.756 45.6158 170.315 45.1989C171.071 45.2224 175.844 48.5428 180.105 51.7845L174.592 71.9979Z" clip-rule="evenodd" fill="#231F20" fill-opacity="1.000000" fill-rule="evenodd"/>
	<path id="Path" d="M158.24 44.89C158.24 44.89 159.64 48.04 161.68 48.55C163.71 49.07 168.13 46.89 168.64 47.17C169.15 47.45 180.81 56.17 181.94 56.43C183.08 56.69 185.17 53.94 186.06 50.68C186.06 50.68 174.71 42.95 173.97 42.13C173.23 41.31 172.35 36.42 171.25 34.63L158.24 44.89Z" fill="#FFFFFF" fill-opacity="1.000000" fill-rule="nonzero"/>
	<path id="Shape" d="M182.066 56.8516C181.985 56.8593 181.903 56.8593 181.822 56.8516C181.113 56.6785 177.396 54.0427 171.212 49.5342C169.818 48.5114 168.605 47.6379 168.456 47.5436C168.35 47.4772 167.927 47.6439 167.465 47.8253C167.27 47.9021 167.068 47.9816 166.88 48.0471L166.853 48.0562C165.209 48.5983 162.974 49.3354 161.611 48.9756C159.421 48.3933 157.972 45.2224 157.909 45.0886C157.831 44.9274 157.877 44.7334 158.019 44.6244L171.008 34.3958C171.097 34.3273 171.211 34.2988 171.323 34.317C171.432 34.3398 171.529 34.4048 171.59 34.498C172.274 35.8971 172.802 37.3667 173.166 38.8806C173.402 39.9412 173.767 40.969 174.253 41.9414C174.772 42.5157 181.72 47.3311 186.264 50.4312C186.406 50.5221 186.47 50.6952 186.422 50.8561C185.611 53.7201 183.602 56.8516 182.066 56.8516ZM168.834 46.8275C168.734 46.7766 168.623 46.7523 168.511 46.7567C167.854 46.8352 167.211 46.9991 166.597 47.2445L166.579 47.2502C165.122 47.7303 162.922 48.4551 161.776 48.1572C160.303 47.7875 159.114 45.7495 158.728 45.01L171.102 35.2297C171.621 36.4639 172.051 37.734 172.386 39.0302C172.914 40.8241 173.252 41.957 173.654 42.3977C174.363 43.1924 183.657 49.5499 185.571 50.8481C184.618 54.082 182.744 56.2537 182.003 56.0569C181.263 55.8602 174.828 51.1393 171.677 48.8654C169.826 47.5199 168.999 46.9141 168.834 46.8275Z" clip-rule="evenodd" fill="#231F20" fill-opacity="1.000000" fill-rule="evenodd"/>
	<path id="Path" d="M170.63 37.56C170.54 38.39 170.7 39.23 171.08 39.98C171.72 41.12 174.55 42.64 174.55 42.64L176.52 38.7L172.66 35.92L170.63 37.56Z" fill="#231F20" fill-opacity="1.000000" fill-rule="nonzero"/>
	<path id="Shape" d="M174.552 43.0352C174.489 43.0355 174.426 43.0192 174.371 42.9879C174.064 42.8306 171.417 41.3749 170.748 40.171C170.32 39.3539 170.148 38.4277 170.252 37.5116C170.264 37.4163 170.312 37.329 170.385 37.2677L172.41 35.5996C172.553 35.4867 172.755 35.4867 172.898 35.5996L176.75 38.385C176.904 38.4958 176.957 38.7012 176.876 38.8728L174.907 42.8069C174.858 42.9017 174.772 42.9728 174.67 43.0037C174.634 43.022 174.593 43.0326 174.552 43.0352ZM171.433 39.7933C171.112 39.173 170.967 38.4761 171.016 37.7792L172.677 36.4022L176.017 38.8177L174.387 42.1067C173.473 41.5795 171.843 40.5802 171.433 39.7933Z" clip-rule="evenodd" fill="#231F20" fill-opacity="1.000000" fill-rule="evenodd"/>
	<path id="Path" d="M182.98 48.59C182.98 48.59 184.02 45.34 182.2 45.12C182.16 44.53 181.83 44.01 181.31 43.74C180.8 43.46 180.18 43.48 179.68 43.78C179.68 43.78 179.09 41.36 177.19 41.85C175.28 42.34 173.77 46.89 174.04 48.04C174.3 49.19 175.78 48.49 176.53 47.41C176.53 47.41 175.56 49.21 176.21 49.68C177.15 50.37 178.15 49.14 178.95 48.25C178.95 48.25 177.76 50.35 179.51 50.54C180.86 50.69 182.11 47.97 182.11 47.97L182.98 48.59Z" fill="#FFFFFF" fill-opacity="1.000000" fill-rule="nonzero"/>
	<path id="Shape" d="M179.585 50.9426L179.436 50.9426C178.717 50.9426 178.133 50.3627 178.128 49.6443C177.474 50.2188 176.718 50.5807 175.938 50.0062C175.594 49.6962 175.456 49.2166 175.584 48.771C175.244 48.9838 174.84 49.0701 174.442 49.0149C174.009 48.929 173.677 48.5786 173.615 48.1415C173.323 46.8118 174.891 42.0437 177.065 41.485C177.611 41.3221 178.199 41.3965 178.688 41.6896C179.247 42.0736 179.672 42.6243 179.9 43.2632C180.416 43.0758 180.986 43.11 181.476 43.3577C181.981 43.6864 182.342 44.1959 182.484 44.7817C182.826 44.8809 183.121 45.1021 183.311 45.4033C184.012 46.4971 183.406 48.4877 183.311 48.7159C183.277 48.8354 183.185 48.9301 183.067 48.9677C182.948 49.0082 182.817 48.9907 182.712 48.9204L182.177 48.5507C181.799 49.3533 180.791 50.9426 179.585 50.9426ZM179.152 47.9369C179.085 47.8843 179.001 47.8564 178.916 47.8583C178.806 47.8585 178.7 47.9039 178.625 47.9841L178.459 48.173C177.608 49.1172 176.955 49.7623 176.403 49.3611C176.222 49.2273 176.443 48.3776 176.844 47.5907C176.938 47.407 176.876 47.1825 176.703 47.0714C176.525 46.9633 176.294 47.0115 176.175 47.1816C175.838 47.7532 175.258 48.1388 174.6 48.228C174.544 48.2202 174.442 48.1965 174.387 47.9526C174.174 46.9534 175.584 42.6573 177.262 42.2324C177.601 42.1262 177.969 42.1661 178.278 42.3427C178.771 42.7252 179.121 43.2631 179.27 43.869C179.301 43.9821 179.378 44.0765 179.483 44.1287C179.588 44.1761 179.709 44.1761 179.814 44.1287C180.209 43.8994 180.689 43.8646 181.114 44.0343C181.479 44.3054 181.723 44.7098 181.791 45.1594C181.817 45.3345 181.954 45.4719 182.13 45.4978C182.35 45.5135 182.55 45.6296 182.673 45.8125C182.931 46.496 182.956 47.2457 182.744 47.9448L182.303 47.6379C182.207 47.5691 182.085 47.5487 181.972 47.5829C181.861 47.6144 181.77 47.6918 181.72 47.7953C181.35 48.5822 180.31 50.2423 179.522 50.1558C179.089 50.1085 178.979 49.9354 178.979 49.8804C178.79 49.5106 179.089 48.7552 179.262 48.4484C179.357 48.274 179.311 48.0568 179.152 47.9369Z" clip-rule="evenodd" fill="#231F20" fill-opacity="1.000000" fill-rule="evenodd"/>
	<path id="Path" d="M174.56 38.84C174.56 38.84 173.48 36.97 172.35 38.62C171.22 40.26 169.85 43.34 171.74 43.67C173.63 44 175.05 40.47 174.56 38.84Z" fill="#FFFFFF" fill-opacity="1.000000" fill-rule="nonzero"/>
	<path id="Shape" d="M171.992 44.0737C171.89 44.0815 171.787 44.0815 171.685 44.0737C171.182 44.0132 170.75 43.6892 170.551 43.224C170 41.9099 171.22 39.5731 172.032 38.4086C172.306 37.9037 172.827 37.5807 173.402 37.5588C174.269 37.5981 174.844 38.5581 174.907 38.6604L174.946 38.7469C175.209 40.3358 174.763 41.9602 173.725 43.1925C173.301 43.7211 172.67 44.042 171.992 44.0737ZM172.677 38.8256C172.835 38.5974 173.087 38.322 173.347 38.322L173.363 38.322C173.717 38.3378 174.072 38.7863 174.198 38.9908C174.368 40.3051 173.982 41.6306 173.135 42.6495C172.829 43.069 172.33 43.3035 171.811 43.2711C171.577 43.2535 171.371 43.1084 171.276 42.8934C170.945 42.0988 171.725 40.2025 172.677 38.8256Z" clip-rule="evenodd" fill="#231F20" fill-opacity="1.000000" fill-rule="evenodd"/>
	<path id="Path" d="M169.01 56.14C169.01 56.14 167.77 50.2 167.65 49.14C167.45 47.33 167.88 44.52 169.46 44.08C171.04 43.64 174.67 43.22 174.07 44.81C173.52 46.26 170.35 46.53 170.35 46.53C170.35 46.53 172.54 48.73 172.21 50.93L169.01 56.14Z" fill="#FFFFFF" fill-opacity="1.000000" fill-rule="nonzero"/>
	<path id="Path" d="M169.01 56.53C168.83 56.53 168.67 56.41 168.62 56.23C168.58 55.98 167.38 50.25 167.26 49.14C167.06 47.3 167.45 44.19 169.36 43.64C170.35 43.36 173.38 42.79 174.27 43.76C174.55 44.07 174.61 44.51 174.44 44.88C173.99 46.09 172.18 46.57 171.13 46.76C171.79 47.59 172.85 49.24 172.59 50.92C172.57 51.06 172.48 51.18 172.35 51.23C172.21 51.29 172.06 51.26 171.95 51.17C171.84 51.09 171.79 50.94 171.81 50.8C172.11 48.83 170.08 46.76 170.07 46.74C169.96 46.63 169.92 46.47 169.97 46.33C170.03 46.18 170.16 46.09 170.31 46.08C171.1 46 173.32 45.6 173.69 44.6C173.78 44.39 173.69 44.33 173.69 44.3C173.27 43.83 171.09 43.97 169.56 44.39C168.28 44.75 167.85 47.31 168.04 49.03C168.16 50.06 169.39 55.94 169.4 56C169.42 56.1 169.4 56.21 169.34 56.29C169.28 56.38 169.19 56.44 169.09 56.46L169.01 56.53Z" fill="#231F20" fill-opacity="1.000000" fill-rule="nonzero"/>
	<path id="Path" d="M192.27 33.61C192.27 33.61 179.15 32.31 173.79 35.41C172.45 36.22 171.16 37.11 169.93 38.09C167.03 40.36 164.29 42.94 162.17 44.38C157.94 47.22 153.86 47.79 151.08 43.28C148.72 39.43 150.1 37.61 153.3 34.19C154.87 32.49 158.21 29.7 161.09 26.61C162.79 24.89 164.22 22.93 165.34 20.79C167.77 15.69 167.08 7.87 167.08 7.87L192.27 33.61Z" fill="#FFFFFF" fill-opacity="1.000000" fill-rule="nonzero"/>
	<path id="Shape" d="M156.271 46.9771C155.847 46.981 155.424 46.9362 155.011 46.8433C153.188 46.3745 151.646 45.1646 150.757 43.5072C148.213 39.3842 149.781 37.3936 153.01 33.9315C153.688 33.2076 154.664 32.2949 155.798 31.2484C157.374 29.785 159.146 28.1012 160.808 26.3545C162.481 24.6678 163.891 22.7396 164.99 20.6343C167.353 15.6772 166.699 7.96643 166.692 7.8877C166.679 7.72205 166.77 7.56555 166.92 7.49426C167.073 7.422 167.254 7.45703 167.369 7.58081L192.574 33.3414C192.687 33.4594 192.715 33.6346 192.645 33.782C192.573 33.9323 192.417 34.0229 192.251 34.0103C192.244 34.0103 192.2 34.0066 192.123 34.0004C190.758 33.8887 178.915 32.9202 174.009 35.7727C172.679 36.5656 171.405 37.4489 170.197 38.4164C169.007 39.3528 167.834 40.3284 166.739 41.2646C165.355 42.4875 163.909 43.6379 162.407 44.7109C160.123 46.2217 158.075 46.9771 156.271 46.9771ZM165.707 20.9725C167.629 16.8889 167.637 11.2396 167.542 8.87915L191.282 33.1683C188.021 32.9244 178.191 32.468 173.631 35.1196C172.257 35.9332 170.941 36.8402 169.693 37.8341C168.495 38.7705 167.337 39.754 166.211 40.6982C164.852 41.9014 163.43 43.0308 161.95 44.0815C159.327 45.8362 157.051 46.5206 155.176 46.1116C153.565 45.6771 152.208 44.5944 151.427 43.1216C149.174 39.4471 150.434 37.8105 153.585 34.4666C154.239 33.7664 155.216 32.8615 156.334 31.8229C157.917 30.3514 159.705 28.6913 161.383 26.8895C163.11 25.1425 164.568 23.1483 165.707 20.9725Z" clip-rule="evenodd" fill="#231F20" fill-opacity="1.000000" fill-rule="evenodd"/>
	<path id="Path" d="M170.63 37.56C167.73 39.84 164.21 42.85 162.17 44.38C157.49 47.87 154.53 48.24 151.47 43.92C148.32 39.48 150.1 37.62 153.3 34.19C154.87 32.5 158.21 29.71 161.09 26.62C161.09 26.62 161.27 29.84 164.47 33.76C166.05 35.68 168.21 37.01 170.63 37.56Z" fill="#231F20" fill-opacity="1.000000" fill-rule="nonzero"/>
	<path id="Shape" d="M156.239 47.4727C155.996 47.4745 155.754 47.4561 155.514 47.4176C153.939 47.1737 152.553 46.135 151.151 44.1522C147.839 39.476 149.768 37.406 152.959 33.9823L152.97 33.9708C153.687 33.184 154.664 32.2948 155.798 31.2484C157.373 29.7849 159.146 28.1011 160.807 26.3544C160.912 26.2368 161.078 26.1962 161.225 26.2521C161.373 26.3052 161.475 26.4414 161.485 26.5983C161.485 26.5983 161.713 29.7456 164.785 33.5144C166.303 35.3528 168.385 36.6412 170.708 37.181C170.86 37.2109 170.982 37.3235 171.023 37.4722C171.054 37.6241 171 37.781 170.882 37.8813C169.542 38.9277 168.085 40.1238 166.668 41.2804C165.045 42.6101 163.517 43.869 162.406 44.6952C159.894 46.5914 157.925 47.4727 156.239 47.4727ZM156.333 31.8228C157.743 30.5166 159.319 29.0531 160.823 27.4795C161.408 29.8894 162.555 32.1272 164.171 34.0101C165.627 35.7788 167.572 37.0811 169.763 37.7554C168.597 38.6838 167.369 39.691 166.171 40.6746C164.557 41.9963 163.029 43.2789 161.934 44.0657C159.201 46.1036 157.263 46.8904 155.633 46.6387C154.286 46.4261 153.065 45.4899 151.797 43.6959C148.867 39.5448 150.426 37.8667 153.559 34.4937L153.585 34.4664C154.239 33.7662 155.215 32.8613 156.333 31.8228Z" clip-rule="evenodd" fill="#231F20" fill-opacity="1.000000" fill-rule="evenodd"/>
	<path id="Path" d="M195.91 32.5C192.97 35.14 186.46 32.94 180.12 27.58C178.49 26.21 176.96 24.73 175.55 23.15C174.16 21.59 172.87 19.94 171.7 18.21C166.98 11.27 165.51 4.55 168.47 1.9C172.12 -1.38 181.24 2.81 188.83 11.26C196.41 19.71 199.58 29.21 195.91 32.5Z" fill="#7C5DFA" fill-opacity="1.000000" fill-rule="nonzero"/>
	<path id="Shape" d="M167.92 1.3335C168.991 0.423584 170.367 -0.048584 171.772 0.0115967C176.624 0.0115967 183.524 4.22107 189.4 10.7045C192.864 14.4188 195.559 18.78 197.331 23.5376C198.804 27.8651 198.466 31.2484 196.441 33.0581C195.367 33.9869 193.978 34.4709 192.558 34.4114C189.037 34.4114 184.312 32.1296 179.585 28.1956C176.318 25.4097 173.44 22.1968 171.031 18.6436C165.967 11.1687 164.715 4.20532 167.92 1.3335ZM171.772 0.798462C176.238 0.798462 182.98 4.77979 188.809 11.271C196.402 19.7214 199.584 29.2263 195.898 32.5151C194.969 33.2906 193.783 33.6893 192.574 33.6324C189.242 33.6324 184.65 31.4215 180.105 27.5975C178.48 26.2269 176.954 24.7441 175.537 23.1599C174.149 21.6021 172.87 19.9512 171.709 18.2186C166.983 11.2789 165.51 4.55945 168.472 1.90784C169.396 1.14148 170.572 0.746094 171.772 0.798462Z" clip-rule="evenodd" fill="#231F20" fill-opacity="1.000000" fill-rule="evenodd"/>
	<path id="Path" d="M185.35 21.04L180.12 27.58C178.49 26.21 176.97 24.73 175.55 23.15C174.16 21.59 172.87 19.94 171.7 18.21L179.28 13.56L185.35 21.04Z" fill="#FFFFFF" fill-opacity="1.000000" fill-rule="nonzero"/>
	<ellipse id="Oval" rx="2.243862" ry="4.817405" transform="matrix(0.772734 0.772734 0.634731 -0.634731 182.308 17.3335)" fill="#231F20" fill-opacity="1.000000"/>
	<path id="Shape" d="M184.555 21.6886C183.319 21.6886 181.649 20.6893 180.255 18.9897C179.461 18.0571 178.871 16.969 178.522 15.7953C178.231 14.6622 178.396 13.7732 178.987 13.2932C179.578 12.8132 180.475 12.821 181.531 13.2932C182.614 13.8716 183.562 14.6736 184.311 15.6458C186.17 17.9039 186.729 20.406 185.587 21.3502C185.291 21.5752 184.928 21.6943 184.555 21.6886ZM179.483 13.899C179.648 13.7759 179.852 13.7147 180.058 13.726C180.443 13.75 180.819 13.8546 181.161 14.0328C182.152 14.5491 183.024 15.2675 183.721 16.1415C185.375 18.1558 185.776 20.1779 185.099 20.7366C184.422 21.2952 182.515 20.5083 180.861 18.494C180.138 17.6508 179.601 16.6639 179.286 15.5985C179.081 14.796 179.152 14.1744 179.483 13.899Z" clip-rule="evenodd" fill="#231F20" fill-opacity="1.000000" fill-rule="evenodd"/>
	<path id="Path" d="M178.91 48.64C178.84 48.64 178.77 48.62 178.71 48.59C178.62 48.53 178.56 48.45 178.53 48.35C178.5 48.25 178.52 48.14 178.57 48.05C179.06 47.25 179.67 46.53 180.37 45.9C180.47 45.79 180.63 45.75 180.77 45.8C180.92 45.84 181.02 45.97 181.04 46.12C181.07 46.27 181 46.42 180.87 46.5C180.26 47.08 179.73 47.73 179.3 48.45C179.22 48.58 179.07 48.66 178.91 48.64Z" fill="#231F20" fill-opacity="1.000000" fill-rule="nonzero"/>
	<path id="Path" d="M176.49 47.81L176.43 47.81C176.33 47.79 176.24 47.72 176.18 47.64C176.12 47.55 176.1 47.44 176.12 47.34C176.41 46.22 177.07 45.23 178.01 44.54C178.18 44.41 178.43 44.45 178.56 44.62C178.69 44.79 178.65 45.04 178.48 45.17C177.71 45.74 177.15 46.56 176.9 47.49C176.86 47.68 176.69 47.81 176.49 47.81Z" fill="#231F20" fill-opacity="1.000000" fill-rule="nonzero"/>
	<path id="Path" d="M182.07 48.36C181.99 48.37 181.91 48.34 181.85 48.29C181.76 48.23 181.7 48.14 181.69 48.04C181.67 47.93 181.69 47.83 181.75 47.74L182.29 46.96C182.42 46.78 182.66 46.74 182.84 46.86C183.02 46.99 183.06 47.23 182.94 47.41L182.39 48.2C182.32 48.31 182.2 48.37 182.07 48.36Z" fill="#231F20" fill-opacity="1.000000" fill-rule="nonzero"/>
	<path id="Path" d="M157.21 46.67C157.13 46.67 157.04 46.65 156.98 46.59C153.49 43.95 151.34 40.74 150.91 37.56L150.91 37.48C150.86 37.3 150.93 37.12 151.08 37.03C151.17 36.97 151.28 36.95 151.38 36.97C151.49 37 151.57 37.06 151.63 37.15C151.67 37.25 151.7 37.35 151.71 37.46C152.11 40.43 154.15 43.45 157.47 45.96C157.61 46.07 157.66 46.25 157.61 46.41C157.55 46.57 157.4 46.68 157.23 46.67L157.21 46.67Z" fill="#FFFFFF" fill-opacity="1.000000" fill-rule="nonzero"/>
	<path id="Path" d="M155.27 34.12C155.16 34.11 155.05 34.07 154.98 33.98C154.91 33.91 154.87 33.81 154.87 33.71C154.87 33.6 154.91 33.5 154.98 33.43L159.22 29.5C159.29 29.42 159.39 29.38 159.5 29.38C159.6 29.38 159.7 29.42 159.77 29.5C159.85 29.57 159.89 29.67 159.89 29.77C159.89 29.88 159.85 29.98 159.77 30.05L155.53 33.98C155.47 34.06 155.37 34.11 155.27 34.12Z" fill="#FFFFFF" fill-opacity="1.000000" fill-rule="nonzero"/>
	<path id="Path" d="M155.85 35.06C155.74 35.06 155.63 35.01 155.56 34.93C155.41 34.78 155.41 34.53 155.56 34.38L159.8 30.44C159.95 30.29 160.19 30.29 160.35 30.44C160.42 30.51 160.46 30.62 160.46 30.72C160.46 30.83 160.42 30.93 160.35 31L156.12 34.93C156.05 35.01 155.95 35.05 155.85 35.06Z" fill="#FFFFFF" fill-opacity="1.000000" fill-rule="nonzero"/>
	<path id="Path" d="M156.52 36.15C156.41 36.15 156.31 36.1 156.23 36.02C156.16 35.95 156.12 35.85 156.12 35.74C156.12 35.64 156.16 35.54 156.23 35.47L160.47 31.53C160.54 31.46 160.64 31.42 160.75 31.42C160.85 31.42 160.95 31.46 161.02 31.53C161.1 31.61 161.14 31.71 161.14 31.81C161.14 31.91 161.1 32.01 161.02 32.09L156.79 36.02C156.72 36.1 156.62 36.14 156.52 36.15Z" fill="#FFFFFF" fill-opacity="1.000000" fill-rule="nonzero"/>
	<path id="Path" d="M86.42 96.83L84.44 140.44C84.44 140.44 111.42 140.76 126.93 134.29C128.21 130.13 129.74 126.06 131.53 122.1C133.81 117.5 143.59 110.73 140.51 93.13C140.51 93.13 163.54 107.69 170.03 101C176.52 94.32 179.77 63.08 179.77 63.08L166.29 58.75L160.16 78.01C160.16 78.01 121.29 59.23 112.24 56.85C108.87 55.97 98.42 61.53 86.44 69.22L86.42 96.83Z" fill="#7C5DFA" fill-opacity="1.000000" fill-rule="nonzero"/>
	<path id="Path" d="M111.4 69.93C111.4 69.93 117.65 89.32 118.72 97.53C119.79 105.73 119.95 119.3 119.95 119.3C119.95 119.3 129.83 89.05 128.61 70.37L111.4 69.93Z" fill="#231F20" fill-opacity="1.000000" fill-rule="nonzero"/>
	<path id="Shape" d="M119.952 119.656L119.905 119.656C119.735 119.632 119.608 119.489 119.605 119.318C119.605 119.184 119.432 105.674 118.377 97.5854C117.321 89.4969 111.138 70.2434 111.075 70.0466C111.043 69.9396 111.063 69.8235 111.13 69.7335C111.197 69.6437 111.302 69.5906 111.414 69.5903L128.616 70.031C128.797 70.0308 128.947 70.1729 128.955 70.3535C130.176 88.8832 120.385 119.136 120.291 119.412C120.245 119.56 120.107 119.659 119.952 119.656ZM119.07 97.4832C118.101 90.0477 112.84 73.3041 111.886 70.2985L128.285 70.7312C129.199 86.3339 122.409 110.072 120.259 117.154C120.165 112.991 119.857 103.668 119.07 97.4832Z" clip-rule="evenodd" fill="#231F20" fill-opacity="1.000000" fill-rule="evenodd"/>
	<path id="Path" d="M79.93 163.59L154.38 163.59L126.96 134.29L84.46 140.44C84.46 140.44 79.37 151.94 79.86 160.02C79.89 160.97 79.91 162.19 79.93 163.59Z" fill="#231F20" fill-opacity="1.000000" fill-rule="nonzero"/>
	<path id="Shape" d="M154.388 163.985L79.9392 163.985C79.8354 163.987 79.7354 163.948 79.6611 163.875C79.5872 163.803 79.5454 163.703 79.5454 163.6C79.5454 162.278 79.498 161.011 79.4431 160.043C78.9626 151.963 83.8696 140.758 84.0823 140.278C84.1392 140.158 84.2507 140.073 84.3816 140.05L126.915 133.897C127.044 133.882 127.173 133.929 127.261 134.023L154.68 163.324C154.787 163.439 154.815 163.607 154.751 163.75C154.688 163.894 154.545 163.986 154.388 163.985ZM153.467 163.198L80.3408 163.198C80.3408 162.01 80.2859 160.885 80.2463 159.996C79.8054 152.686 84.0667 142.371 84.7361 140.798L126.812 134.708L153.467 163.198Z" clip-rule="evenodd" fill="#231F20" fill-opacity="1.000000" fill-rule="evenodd"/>
	<path id="Path" d="M126.47 59.51L128.6 70.37C128.6 70.37 128.66 76.67 121.68 76.06C117.5 75.67 113.73 73.42 111.4 69.93L108.57 50.95C108.82 47.5 108.54 44.03 107.74 40.65C115.77 38.99 120.95 31.73 120.95 31.73C120.95 31.73 124.5 35.35 125.95 36.45C127.12 37.25 128.17 38.19 129.1 39.26C130.62 41.14 131.07 43.77 131.46 46.09C131.96 48.85 132.2 51.64 132.2 54.44C132.07 59.75 126.47 59.51 126.47 59.51Z" fill="#FFFFFF" fill-opacity="1.000000" fill-rule="nonzero"/>
	<path id="Shape" d="M122.591 76.4672L121.654 76.4672C117.36 76.0808 113.476 73.7644 111.099 70.1725C111.076 70.1307 111.06 70.0856 111.052 70.0388C111.052 70.0388 108.232 51.155 108.224 51.0607C108.192 50.744 108.192 50.4252 108.224 50.1086C108.406 46.9739 108.125 43.8295 107.389 40.7769C107.365 40.6851 107.382 40.5873 107.436 40.5094C107.489 40.4287 107.571 40.3721 107.665 40.3521C115.455 38.7783 120.598 31.6418 120.645 31.571C120.709 31.4849 120.806 31.4304 120.913 31.4215C121.02 31.4114 121.125 31.4523 121.197 31.5317C121.236 31.5317 124.749 35.1432 126.167 36.2054C127.333 37.0238 128.392 37.9861 129.317 39.0695C130.893 41.0522 131.373 43.7904 131.751 46.0643C132.252 48.8398 132.5 51.6552 132.492 54.4755C132.533 55.9294 131.962 57.3341 130.916 58.3466C129.776 59.3164 128.341 59.8711 126.844 59.9203L128.9 70.3613C128.89 72.0953 128.2 73.7563 126.978 74.9879C125.757 76.0193 124.188 76.5481 122.591 76.4672ZM121.717 75.7118C117.685 75.3145 114.036 73.1536 111.753 69.8105C108.957 51.0922 108.988 50.8954 108.988 50.8954C108.967 50.6335 108.967 50.3705 108.988 50.1086C109.17 47.0311 108.905 43.9436 108.2 40.9421C115.171 39.3684 119.889 33.7427 121.015 32.2871C121.874 33.1841 124.513 35.812 125.741 36.7327C126.868 37.5171 127.892 38.4397 128.79 39.4786C130.286 41.3041 130.688 43.877 131.074 46.1351C131.568 48.869 131.813 51.6422 131.806 54.4204C131.849 55.671 131.373 56.8838 130.491 57.7722C129.362 58.6895 127.945 59.1774 126.49 59.1492C126.378 59.1403 126.269 59.1874 126.198 59.275C126.13 59.3618 126.102 59.4731 126.119 59.5819L128.246 70.3771C128.209 71.8888 127.601 73.3304 126.545 74.4135C125.418 75.4521 123.796 75.8849 121.717 75.7118Z" clip-rule="evenodd" fill="#231F20" fill-opacity="1.000000" fill-rule="evenodd"/>
	<path id="Path" d="M127.42 64.86C127.42 64.86 123.04 65.89 119.64 63.49C116.24 61.09 116.1 58.04 116.1 58.04C116.1 58.04 121.48 60.33 126.47 59.51L127.42 64.86Z" fill="#231F20" fill-opacity="1.000000" fill-rule="nonzero"/>
	<path id="Shape" d="M125.135 65.4359C123.113 65.4794 121.128 64.8997 119.448 63.7758C115.943 61.3051 115.785 58.2365 115.785 58.0634C115.776 57.9436 115.833 57.8285 115.935 57.7644C116.03 57.6927 116.156 57.6777 116.266 57.7251C116.27 57.7251 116.31 57.7401 116.382 57.7672C117.186 58.0717 122.024 59.9019 126.45 59.1649C126.637 59.1365 126.812 59.2623 126.844 59.4481L127.805 64.7986C127.839 64.9827 127.72 65.1604 127.537 65.1998C126.748 65.3679 125.942 65.4471 125.135 65.4359ZM119.873 63.2092C118.24 62.13 117.064 60.4846 116.573 58.5906C118.038 59.1414 122.165 60.4631 126.222 59.9045L127.057 64.5862C126.009 64.7828 122.591 65.129 119.873 63.2092Z" clip-rule="evenodd" fill="#231F20" fill-opacity="1.000000" fill-rule="evenodd"/>
	<path id="Path" d="M120.66 40.98C120.66 40.98 125.15 45.54 124.49 46.6C123.83 47.66 121.39 47.51 121.39 47.51L120.66 40.98Z" fill="#FFFFFF" fill-opacity="1.000000" fill-rule="nonzero"/>
	<path id="Path" d="M121.77 47.87L121.37 47.87C121.27 47.86 121.19 47.82 121.13 47.75C121.07 47.68 121.04 47.59 121.04 47.5C121.06 47.31 121.22 47.16 121.41 47.17C122.04 47.17 123.78 47.17 124.2 46.43C124.47 45.99 122.7 43.56 120.41 41.23C120.28 41.09 120.28 40.87 120.42 40.74C120.55 40.6 120.77 40.6 120.91 40.74C122.32 42.17 125.52 45.63 124.79 46.8C124.19 47.75 122.55 47.87 121.77 47.87Z" fill="#231F20" fill-opacity="1.000000" fill-rule="nonzero"/>
	<ellipse id="Oval" rx="0.614338" ry="1.148821" transform="matrix(0.974331 0.974331 0.225121 -0.225121 126.624 42.3439)" fill="#231F20" fill-opacity="1.000000"/>
	<ellipse id="Oval" rx="0.614338" ry="1.148821" transform="matrix(0.974331 0.974331 0.225121 -0.225121 116.589 43.3627)" fill="#231F20" fill-opacity="1.000000"/>
	<path id="Path" d="M111.15 44.69C110.05 42.92 107.49 42.68 105.71 43.39C104.49 43.83 103.67 44.95 103.62 46.24C103.61 47.01 103.75 47.78 104.03 48.5C104.5 49.85 105.22 51.1 106.14 52.19C106.57 52.76 107.13 53.22 107.79 53.51C108.63 53.81 109.56 53.56 110.15 52.9L111.15 44.69Z" fill="#FFFFFF" fill-opacity="1.000000" fill-rule="nonzero"/>
	<path id="Path" d="M108.53 54.01C108.23 54.01 107.94 53.96 107.66 53.85C106.95 53.53 106.34 53.04 105.86 52.42C104.92 51.3 104.18 50.01 103.69 48.62C103.39 47.86 103.24 47.04 103.26 46.22C103.32 44.8 104.23 43.55 105.57 43.07C107.54 42.28 110.3 42.6 111.46 44.51C111.54 44.68 111.48 44.88 111.32 44.98C111.16 45.08 110.95 45.04 110.84 44.89C109.86 43.31 107.53 43.05 105.84 43.73C104.76 44.11 104.02 45.11 103.97 46.26C103.96 46.98 104.09 47.7 104.35 48.38C104.81 49.69 105.51 50.9 106.4 51.96C106.79 52.48 107.31 52.9 107.9 53.17C108.62 53.42 109.41 53.21 109.9 52.65C109.99 52.53 110.13 52.48 110.27 52.51C110.41 52.54 110.52 52.65 110.55 52.78C110.58 52.92 110.53 53.06 110.42 53.15C109.93 53.68 109.25 53.99 108.53 54.01Z" fill="#231F20" fill-opacity="1.000000" fill-rule="nonzero"/>
	<path id="Path" d="M125.07 48.93L119.8 49.44C119.8 49.44 120.89 57.58 123.26 57.36C125.63 57.14 125.64 51.26 125.07 48.93Z" fill="#FFFFFF" fill-opacity="1.000000" fill-rule="nonzero"/>
	<path id="Shape" d="M123.166 57.717C120.685 57.717 119.637 50.8875 119.456 49.4948C119.438 49.402 119.464 49.3062 119.527 49.2351C119.581 49.1572 119.668 49.108 119.763 49.1014L125.04 48.59C125.211 48.573 125.368 48.6835 125.41 48.8496C125.859 50.6593 126.009 54.9948 124.702 56.828C124.392 57.3181 123.876 57.6421 123.3 57.7092L123.166 57.717ZM123.166 57.0168C121.771 57.0168 120.637 52.7366 120.196 49.7623L124.804 49.3453C125.214 51.3281 125.166 54.9711 124.135 56.4268C123.938 56.7474 123.609 56.9639 123.237 57.0168L123.166 57.0168Z" clip-rule="evenodd" fill="#231F20" fill-opacity="1.000000" fill-rule="evenodd"/>
	<path id="Path" d="M138.25 112.02C138.12 112.02 138 111.95 137.94 111.84C137.88 111.72 137.88 111.59 137.95 111.48C138.01 111.37 143.8 101.65 138.26 81.4C138.21 81.21 138.33 81.01 138.51 80.95C138.6 80.93 138.7 80.94 138.79 80.99C138.87 81.04 138.93 81.11 138.95 81.21C144.59 101.79 138.81 111.45 138.56 111.89C138.49 111.98 138.37 112.03 138.25 112.02Z" fill="#231F20" fill-opacity="1.000000" fill-rule="nonzero"/>
	<path id="Path" d="M31.13 83.87L116.17 145.16L201.2 83.87L201.2 184.41L31.13 184.41L31.13 83.87Z" fill="#FFFFFF" fill-opacity="1.000000" fill-rule="nonzero"/>
	<path id="Shape" d="M31.136 184.812C30.9185 184.812 30.7422 184.636 30.7422 184.419L30.7422 83.8789C30.7397 83.7321 30.8228 83.597 30.9548 83.5327C31.0801 83.4545 31.2393 83.4545 31.3645 83.5327L116.171 144.645L200.97 83.5327C201.096 83.4545 201.255 83.4545 201.38 83.5327C201.514 83.5962 201.6 83.7308 201.601 83.8789L201.601 184.419C201.596 184.635 201.422 184.808 201.207 184.812L31.136 184.812ZM200.852 184.026L31.5063 184.026L31.5063 84.65L115.935 145.479C116.073 145.58 116.261 145.58 116.4 145.479L200.852 84.65L200.852 184.026Z" clip-rule="evenodd" fill="#231F20" fill-opacity="1.000000" fill-rule="evenodd"/>
	<path id="Path" d="M31.13 184.81C30.99 184.81 30.85 184.73 30.78 184.6C30.68 184.41 30.75 184.18 30.93 184.07L108.74 139.6C108.93 139.5 109.17 139.57 109.27 139.75C109.33 139.84 109.34 139.95 109.32 140.05C109.29 140.15 109.22 140.24 109.13 140.29L31.32 184.75C31.26 184.79 31.2 184.81 31.13 184.81Z" fill="#231F20" fill-opacity="1.000000" fill-rule="nonzero"/>
	<path id="Path" d="M201.2 184.81C201.13 184.81 201.07 184.79 201.01 184.75L123.2 140.29C123.01 140.18 122.94 139.94 123.05 139.75C123.16 139.57 123.4 139.5 123.59 139.61L201.39 184.07C201.58 184.18 201.65 184.41 201.54 184.6C201.47 184.73 201.34 184.81 201.2 184.81Z" fill="#231F20" fill-opacity="1.000000" fill-rule="nonzero"/>
	<path id="Path" d="M71.67 138.3C71.67 138.3 75.11 147.25 75.93 147.74C76.74 148.23 86.32 152.15 85.64 153.98C84.95 155.81 80.64 153.58 80.64 153.58C80.64 153.58 86.85 160.76 85.21 162.03C83.57 163.3 78.06 165.87 75.85 164.82C73.63 163.78 62.6 150.12 60.26 144.18L71.67 138.3Z" fill="#FFFFFF" fill-opacity="1.000000" fill-rule="nonzero"/>
	<path id="Path" d="M77.19 165.48C76.67 165.5 76.16 165.4 75.69 165.2C73.33 164.08 62.22 150.25 59.9 144.35C59.85 144.22 59.87 144.07 59.96 143.96C60.05 143.85 60.19 143.79 60.33 143.82C60.47 143.84 60.59 143.93 60.64 144.07C63 150.12 74.11 163.58 76.02 164.52C77.93 165.47 83.31 163.08 84.98 161.78C85.06 161.71 85.1 161.62 85.1 161.52C85.25 159.94 81.71 155.48 80.38 153.89C80.25 153.75 80.25 153.54 80.36 153.39C80.48 153.24 80.69 153.2 80.86 153.29C81.64 153.7 83.9 154.67 84.9 154.29C85.09 154.22 85.24 154.08 85.31 153.89C85.5 153.38 84.25 152.1 77.23 148.85C76.38 148.46 75.93 148.24 75.75 148.13C74.9 147.58 72.16 140.6 71.34 138.47C71.3 138.37 71.31 138.26 71.35 138.17C71.39 138.07 71.47 138 71.57 137.96C71.77 137.89 72 137.99 72.07 138.19C73.71 142.45 75.7 147.08 76.18 147.47C76.32 147.56 76.89 147.83 77.56 148.13C83.22 150.75 86.61 152.67 86.05 154.17C85.9 154.57 85.59 154.88 85.19 155.03C84.13 155.24 83.02 155.12 82.04 154.66C83.56 156.56 86.07 159.97 85.91 161.59C85.89 161.9 85.74 162.18 85.5 162.38C84.2 163.36 80.01 165.48 77.19 165.48Z" fill="#231F20" fill-opacity="1.000000" fill-rule="nonzero"/>
	<path id="Path" d="M86.44 69.25C66.18 82.25 41.54 101.37 39.46 105.84C36.14 112.92 61 148.53 61 148.53L74.46 140.01L62.16 113.31L86.42 96.83L86.44 69.25Z" fill="#7C5DFA" fill-opacity="1.000000" fill-rule="nonzero"/>
	<path id="Path" d="M70.88 107.8C70.77 107.81 70.65 107.75 70.58 107.65C70.47 107.49 70.51 107.27 70.67 107.15L97.91 88.1C97.99 88.04 98.08 88.02 98.18 88.04C98.27 88.05 98.36 88.11 98.41 88.19C98.47 88.27 98.49 88.36 98.47 88.46C98.45 88.55 98.4 88.64 98.32 88.69L71.09 107.74C71.03 107.78 70.96 107.8 70.88 107.8Z" fill="#231F20" fill-opacity="1.000000" fill-rule="nonzero"/>
	<path id="Path" d="M189.23 161.78L222.24 141.6L194.27 153.24L189.23 161.78Z" fill="#231F20" fill-opacity="1.000000" fill-rule="nonzero"/>
	<path id="Shape" d="M189.234 162.183C189.13 162.183 189.031 162.14 188.958 162.065C188.83 161.939 188.804 161.741 188.896 161.585L193.937 153.048C193.976 152.974 194.04 152.916 194.118 152.883L222.119 141.246C222.309 141.167 222.529 141.248 222.622 141.432C222.715 141.616 222.65 141.84 222.473 141.946L189.439 162.097C189.379 162.142 189.309 162.172 189.234 162.183ZM190.376 160.61L194.543 153.528L217.7 143.906L190.376 160.61Z" clip-rule="evenodd" fill="#231F20" fill-opacity="1.000000" fill-rule="evenodd"/>
	<path id="Path" d="M194.27 153.24L205.06 158.76L222.24 141.6L194.27 153.24Z" fill="#FFFFFF" fill-opacity="1.000000" fill-rule="nonzero"/>
	<path id="Shape" d="M205.066 159.115C205.009 159.117 204.951 159.103 204.901 159.075L194.11 153.568C193.983 153.507 193.906 153.377 193.913 153.237C193.921 153.097 194.006 152.973 194.134 152.915L222.119 141.278C222.277 141.215 222.457 141.271 222.552 141.411C222.649 141.552 222.629 141.742 222.505 141.86L205.326 159.013C205.259 159.083 205.164 159.121 205.066 159.115ZM204.995 158.32L195.126 153.284L220.701 142.639L204.995 158.32Z" clip-rule="evenodd" fill="#231F20" fill-opacity="1.000000" fill-rule="evenodd"/>
	<path id="Path" d="M222.24 141.6L186.7 150.09L178.62 145.47L222.24 141.6Z" fill="#FFFFFF" fill-opacity="1.000000" fill-rule="nonzero"/>
	<path id="Shape" d="M186.674 150.444C186.614 150.444 186.554 150.428 186.501 150.397L178.412 145.786C178.28 145.705 178.213 145.549 178.247 145.398C178.281 145.247 178.407 145.134 178.562 145.117L222.182 141.254C222.369 141.239 222.536 141.369 222.568 141.553C222.598 141.738 222.482 141.916 222.3 141.962L186.761 150.436L186.674 150.444ZM186.729 149.696L179.767 145.723L217.393 142.426L186.729 149.696Z" clip-rule="evenodd" fill="#231F20" fill-opacity="1.000000" fill-rule="evenodd"/>
	<path id="Path" d="M186.7 150.09L189.23 161.78L194.27 153.24L222.24 141.6L186.7 150.09Z" fill="#FFFFFF" fill-opacity="1.000000" fill-rule="nonzero"/>
	<path id="Shape" d="M189.234 162.152L189.179 162.152C189.032 162.13 188.914 162.021 188.88 161.877L186.359 150.169C186.338 150.077 186.354 149.98 186.405 149.901C186.455 149.821 186.535 149.765 186.627 149.744L222.166 141.27C222.353 141.209 222.554 141.311 222.615 141.498C222.676 141.685 222.573 141.886 222.386 141.946L194.551 153.536L189.573 161.971C189.505 162.093 189.373 162.163 189.234 162.152ZM189.392 160.807L187.131 150.35L217.968 142.993L194.133 152.907C194.062 152.939 194.002 152.991 193.96 153.056L189.392 160.807Z" clip-rule="evenodd" fill="#231F20" fill-opacity="1.000000" fill-rule="evenodd"/>
	<path id="Path" d="M181.94 163.41C181.77 163.41 181.62 163.29 181.57 163.13C181.53 162.96 181.59 162.78 181.74 162.69L183.05 161.85C183.24 161.73 183.48 161.78 183.6 161.96C183.72 162.14 183.67 162.39 183.49 162.51L182.16 163.36C182.09 163.39 182.02 163.41 181.94 163.41Z" fill="#D1D3D4" fill-opacity="1.000000" fill-rule="nonzero"/>
	<path id="Shape" d="M62.7131 199.471C62.4973 199.467 62.3235 199.293 62.3193 199.078L62.3193 199.078C62.3193 198.863 62.4907 198.688 62.7053 198.684L64.5798 198.645L65.8479 198.605C66.0625 198.605 66.241 198.77 66.2576 198.983C66.2578 198.988 66.2578 198.994 66.2578 198.999C66.2578 199.099 66.2197 199.196 66.1506 199.269C66.0781 199.346 65.9775 199.39 65.8716 199.392L64.6035 199.432L62.7209 199.471L62.7131 199.471ZM59.5625 199.471C58.4912 199.471 57.4358 199.424 56.4119 199.384C56.1992 199.372 56.0337 199.196 56.0337 198.984L56.0337 198.975C56.0378 198.871 56.0833 198.772 56.1602 198.702C56.2371 198.631 56.3389 198.593 56.4434 198.598C57.4673 198.637 58.5149 198.668 59.594 198.684C59.6985 198.684 59.7986 198.726 59.8726 198.799C59.9463 198.873 59.9878 198.973 59.9878 199.078C59.9858 199.185 59.9404 199.288 59.8618 199.362C59.7832 199.436 59.6782 199.475 59.5703 199.471L59.5625 199.471ZM69.0144 199.259C68.8071 199.259 68.637 199.095 68.6284 198.889C68.6279 198.881 68.6277 198.873 68.6277 198.865C68.6277 198.769 68.6628 198.676 68.7268 198.603C68.7964 198.525 68.894 198.478 68.9985 198.472C70.0461 198.425 71.0938 198.362 72.1492 198.291C72.2542 198.282 72.3582 198.317 72.437 198.386C72.5159 198.456 72.5627 198.555 72.5667 198.661C72.5676 198.671 72.5681 198.682 72.5681 198.693C72.5681 198.785 72.5347 198.875 72.4736 198.945C72.4053 199.024 72.3083 199.072 72.2043 199.078C71.1567 199.148 70.1091 199.211 69.0537 199.259L69.0144 199.259ZM53.3005 199.203C52.2295 199.125 51.1819 199.03 50.1499 198.92C49.9495 198.897 49.8013 198.727 49.8013 198.53C49.8013 198.516 49.802 198.502 49.8035 198.487C49.811 198.383 49.8621 198.286 49.9443 198.22C50.0266 198.154 50.1326 198.126 50.2366 198.141C51.2527 198.244 52.2925 198.338 53.3872 198.417C53.6047 198.417 53.781 198.593 53.781 198.81C53.781 199.027 53.6047 199.203 53.3872 199.203L53.3005 199.203ZM75.2998 198.849C75.0823 198.849 74.906 198.673 74.906 198.456C74.906 198.239 75.0823 198.063 75.2998 198.063C76.3474 197.976 77.3872 197.882 78.4504 197.779C78.6658 197.765 78.8552 197.92 78.8838 198.133C78.885 198.147 78.8857 198.161 78.8857 198.175C78.8857 198.265 78.8547 198.353 78.7969 198.424C78.7302 198.505 78.6338 198.556 78.5293 198.566C77.479 198.666 76.4287 198.76 75.3787 198.849L75.2998 198.849ZM47.0229 198.527L46.9836 198.527C45.9282 198.369 44.8806 198.196 43.833 198.007C43.6924 197.981 43.5767 197.881 43.5293 197.746C43.5144 197.703 43.5068 197.658 43.5068 197.614C43.5068 197.52 43.5405 197.427 43.6042 197.353C43.6978 197.244 43.842 197.194 43.9827 197.221C44.9829 197.41 46.0227 197.583 47.0703 197.732C47.1738 197.748 47.2668 197.804 47.3289 197.888C47.3789 197.956 47.4055 198.038 47.4055 198.121C47.4055 198.141 47.4041 198.161 47.4011 198.181C47.3748 198.372 47.2161 198.517 47.0229 198.527ZM81.5696 198.244C81.429 198.252 81.2944 198.185 81.2168 198.067C81.1733 198.002 81.1514 197.926 81.1514 197.85C81.1514 197.79 81.1653 197.729 81.1931 197.674C81.2561 197.548 81.3816 197.465 81.5222 197.457C82.5725 197.341 83.6228 197.215 84.6729 197.079C84.8904 197.051 85.0896 197.204 85.1179 197.421C85.1201 197.439 85.1213 197.456 85.1213 197.473C85.1213 197.669 84.9756 197.84 84.7754 197.866L81.6248 198.236L81.5696 198.244ZM87.8157 197.457C87.6194 197.455 87.4526 197.312 87.4219 197.118C87.4189 197.099 87.4175 197.079 87.4175 197.06C87.4175 196.975 87.4451 196.892 87.4968 196.823C87.5605 196.739 87.6558 196.683 87.7605 196.67L90.864 196.206C90.9666 196.188 91.072 196.212 91.1565 196.272C91.2412 196.333 91.2974 196.425 91.313 196.528C91.3169 196.551 91.3188 196.574 91.3188 196.597C91.3188 196.677 91.2939 196.757 91.2466 196.824C91.186 196.909 91.0935 196.967 90.99 196.985L87.8394 197.449L87.8157 197.457ZM40.8635 197.378L40.769 197.378C39.7214 197.134 38.6897 196.867 37.7051 196.591C37.5337 196.538 37.4231 196.38 37.4231 196.208C37.4231 196.174 37.4277 196.138 37.4373 196.103C37.498 195.895 37.7168 195.775 37.9255 195.836C38.9023 196.111 39.9185 196.379 40.9502 196.623C41.0525 196.645 41.1414 196.708 41.1963 196.797C41.2341 196.858 41.2537 196.928 41.2537 196.999C41.2537 197.031 41.2498 197.063 41.2417 197.095C41.1882 197.265 41.0264 197.378 40.8479 197.37L40.8635 197.378ZM94.0303 196.473C93.8396 196.476 93.6755 196.339 93.6443 196.151C93.6411 196.13 93.6394 196.109 93.6394 196.088C93.6394 195.898 93.7747 195.73 93.9673 195.694L97.0627 195.143C97.1653 195.123 97.272 195.145 97.3579 195.204C97.4441 195.263 97.5024 195.355 97.5195 195.458C97.5239 195.482 97.5259 195.505 97.5259 195.528C97.5259 195.714 97.3938 195.879 97.2046 195.915L94.1011 196.473L94.0303 196.473ZM34.8064 195.616C34.7649 195.623 34.7222 195.623 34.6804 195.616C33.6724 195.261 32.6719 194.876 31.7188 194.475C31.6226 194.433 31.5469 194.355 31.5083 194.258C31.49 194.211 31.481 194.162 31.481 194.113C31.481 194.059 31.4919 194.006 31.5142 193.955C31.6006 193.759 31.8281 193.668 32.0261 193.751C32.9634 194.144 33.948 194.538 34.9404 194.876C35.1353 194.909 35.2729 195.078 35.2729 195.269C35.2729 195.291 35.271 195.314 35.2673 195.336C35.2302 195.553 35.0239 195.7 34.8064 195.663L34.8064 195.616ZM100.182 195.317C99.9958 195.314 99.8359 195.183 99.7959 195.002C99.7905 194.976 99.7881 194.949 99.7881 194.923C99.7881 194.847 99.8103 194.771 99.8533 194.706C99.9109 194.619 100.001 194.558 100.103 194.538L103.183 193.892C103.285 193.872 103.392 193.892 103.479 193.95C103.566 194.007 103.627 194.097 103.647 194.199C103.654 194.228 103.657 194.257 103.657 194.286C103.657 194.359 103.636 194.432 103.596 194.494C103.54 194.582 103.45 194.643 103.348 194.663L100.261 195.309L100.182 195.317ZM106.341 193.995C106.201 194.01 106.062 193.949 105.979 193.835C105.928 193.766 105.902 193.684 105.902 193.601C105.902 193.547 105.913 193.493 105.935 193.442C105.992 193.313 106.114 193.223 106.255 193.208C107.279 192.972 108.295 192.736 109.311 192.484C109.522 192.435 109.733 192.565 109.783 192.775C109.792 192.807 109.796 192.84 109.796 192.872C109.796 192.943 109.776 193.014 109.739 193.076C109.684 193.166 109.595 193.231 109.492 193.255C108.476 193.499 107.46 193.743 106.428 193.971L106.341 193.995ZM29.0015 193.153C28.9382 193.151 28.8762 193.135 28.8203 193.106C27.8672 192.618 26.9377 192.091 26.0557 191.532C25.9668 191.477 25.9033 191.389 25.8799 191.287C25.873 191.257 25.8696 191.227 25.8696 191.198C25.8696 191.125 25.8901 191.052 25.9297 190.989C25.9834 190.899 26.0718 190.834 26.1743 190.81C26.2771 190.786 26.385 190.805 26.4731 190.863C27.3315 191.39 28.2454 191.902 29.1826 192.382C29.3696 192.425 29.4963 192.591 29.4963 192.775C29.4963 192.805 29.4929 192.835 29.4858 192.866C29.4358 193.083 29.219 193.219 29.0015 193.169L29.0015 193.153ZM112.481 192.509C112.269 192.528 112.077 192.375 112.052 192.161C112.05 192.145 112.049 192.13 112.049 192.114C112.049 191.916 112.197 191.745 112.398 191.721L115.439 190.934C115.58 190.897 115.729 190.939 115.831 191.042C115.907 191.119 115.948 191.222 115.948 191.327C115.948 191.364 115.943 191.4 115.933 191.436C115.895 191.575 115.784 191.684 115.644 191.721C114.635 191.994 113.619 192.256 112.595 192.508C112.558 192.518 112.519 192.519 112.481 192.509ZM118.558 190.863C118.388 190.859 118.241 190.744 118.196 190.58C118.187 190.546 118.182 190.511 118.182 190.477C118.182 190.303 118.296 190.143 118.471 190.092L121.488 189.219C121.694 189.157 121.912 189.273 121.976 189.478C121.988 189.516 121.994 189.555 121.994 189.594C121.994 189.658 121.978 189.722 121.947 189.779C121.896 189.871 121.81 189.939 121.708 189.966C120.708 190.265 119.7 190.564 118.684 190.847C118.644 190.863 118.601 190.868 118.558 190.863ZM23.6848 189.848C23.5994 189.849 23.5164 189.821 23.4485 189.77C22.5898 189.132 21.7629 188.455 20.991 187.755C20.9165 187.681 20.8745 187.581 20.8745 187.476C20.8745 187.371 20.9165 187.27 20.991 187.197C21.0635 187.123 21.1628 187.081 21.2666 187.081C21.3704 187.081 21.4697 187.123 21.5422 187.197C22.3098 187.892 23.1116 188.548 23.9448 189.164C24.0479 189.241 24.1023 189.359 24.1023 189.479C24.1023 189.561 24.0767 189.644 24.0234 189.714C23.9385 189.81 23.8125 189.86 23.6848 189.848ZM124.591 189.061C124.42 189.064 124.268 188.951 124.221 188.786C124.209 188.747 124.203 188.707 124.203 188.666C124.203 188.603 124.218 188.541 124.248 188.484C124.296 188.391 124.38 188.321 124.481 188.29C125.489 187.983 126.482 187.661 127.474 187.346C127.573 187.312 127.682 187.319 127.776 187.366C127.87 187.414 127.94 187.497 127.97 187.598C127.984 187.638 127.99 187.679 127.99 187.72C127.99 187.885 127.884 188.039 127.718 188.094C126.726 188.416 125.726 188.731 124.709 189.046C124.672 189.061 124.632 189.069 124.591 189.069L124.591 189.061ZM130.585 187.118C130.368 187.153 130.163 187.005 130.129 186.787C130.125 186.766 130.124 186.745 130.124 186.724C130.124 186.532 130.263 186.362 130.459 186.331C131.46 185.993 132.452 185.654 133.429 185.308C133.635 185.24 133.859 185.348 133.933 185.552C133.948 185.595 133.956 185.639 133.956 185.684C133.956 185.74 133.944 185.797 133.918 185.849C133.874 185.943 133.794 186.014 133.697 186.048C132.712 186.394 131.72 186.74 130.711 187.078L130.585 187.118ZM19.0454 185.623C18.9314 185.622 18.823 185.573 18.7461 185.489C18.0386 184.698 17.3757 183.868 16.7612 183.003C16.699 182.93 16.6665 182.839 16.6665 182.747C16.6665 182.696 16.6768 182.644 16.6973 182.595C16.7546 182.458 16.8848 182.365 17.0332 182.354C17.1819 182.344 17.3235 182.418 17.3992 182.546C17.998 183.388 18.645 184.195 19.3369 184.962C19.4124 185.04 19.4502 185.141 19.4502 185.241C19.4502 185.342 19.4124 185.443 19.3369 185.521C19.259 185.596 19.1536 185.636 19.0454 185.631L19.0454 185.623ZM136.524 185.041C136.36 185.036 136.214 184.934 136.154 184.781C136.138 184.737 136.131 184.692 136.131 184.647C136.131 184.486 136.23 184.335 136.39 184.277C137.391 183.916 138.367 183.546 139.344 183.184C139.538 183.135 139.739 183.239 139.809 183.427C139.826 183.472 139.834 183.519 139.834 183.565C139.834 183.709 139.755 183.847 139.62 183.916C138.643 184.285 137.658 184.647 136.658 185.009C136.618 185.034 136.572 185.048 136.524 185.049L136.524 185.041ZM142.416 182.814C142.275 182.839 142.132 182.788 142.04 182.679C141.978 182.605 141.945 182.514 141.945 182.421C141.945 182.375 141.953 182.329 141.969 182.285C142.017 182.151 142.134 182.052 142.274 182.027L145.196 180.87C145.396 180.789 145.625 180.884 145.708 181.083C145.729 181.132 145.738 181.183 145.738 181.234C145.738 181.389 145.647 181.537 145.496 181.602L142.566 182.798C142.517 182.814 142.467 182.822 142.416 182.822L142.416 182.814ZM15.4065 180.516C15.2617 180.519 15.1279 180.44 15.0601 180.312C14.5454 179.382 14.085 178.423 13.6816 177.44C13.6619 177.392 13.6521 177.341 13.6521 177.291C13.6521 177.204 13.6804 177.119 13.7351 177.048C13.8218 176.937 13.9612 176.88 14.1013 176.899C14.2415 176.918 14.3606 177.01 14.4141 177.141C14.8013 178.099 15.2483 179.032 15.7532 179.934C15.7842 179.994 15.7991 180.057 15.7991 180.12C15.7991 180.26 15.7256 180.396 15.5955 180.469C15.5371 180.5 15.4724 180.516 15.4065 180.516ZM148.26 180.461C148.1 180.465 147.955 180.367 147.898 180.217C147.877 180.168 147.868 180.117 147.868 180.066C147.868 179.915 147.956 179.771 148.103 179.706C149.087 179.297 150.056 178.919 151.001 178.479C151.202 178.392 151.434 178.483 151.521 178.683C151.544 178.734 151.554 178.788 151.554 178.84C151.554 178.993 151.465 179.138 151.316 179.203L148.41 180.43C148.363 180.452 148.312 180.462 148.26 180.461ZM154.042 177.967C153.888 177.965 153.748 177.877 153.679 177.739C153.656 177.688 153.644 177.632 153.644 177.577C153.644 177.529 153.653 177.481 153.67 177.436C153.709 177.337 153.786 177.259 153.884 177.22C154.861 176.779 155.814 176.354 156.743 175.921C156.941 175.83 157.176 175.917 157.267 176.114C157.292 176.168 157.304 176.224 157.304 176.279C157.304 176.428 157.219 176.571 157.074 176.637C156.137 177.07 155.184 177.503 154.199 177.936C154.15 177.958 154.096 177.969 154.042 177.967ZM159.768 175.339C159.616 175.344 159.477 175.257 159.414 175.119C159.387 175.064 159.373 175.005 159.373 174.945C159.373 174.902 159.38 174.859 159.395 174.818C159.429 174.719 159.5 174.637 159.595 174.592C160.572 174.135 161.517 173.679 162.43 173.23C162.626 173.135 162.862 173.216 162.958 173.411C162.985 173.467 162.998 173.526 162.998 173.584C162.998 173.73 162.917 173.87 162.777 173.939L159.933 175.308C159.881 175.329 159.825 175.34 159.768 175.339ZM13.0278 174.686C12.8506 174.685 12.6958 174.566 12.6497 174.395C12.3613 173.373 12.1299 172.335 11.9565 171.287C11.9531 171.266 11.9514 171.245 11.9514 171.224C11.9514 171.031 12.0913 170.862 12.2874 170.831C12.5049 170.796 12.7095 170.944 12.7441 171.161C12.9016 172.19 13.1172 173.209 13.3901 174.214C13.4006 174.25 13.4058 174.287 13.4058 174.324C13.4058 174.39 13.3894 174.455 13.3574 174.513C13.3071 174.605 13.2227 174.673 13.1223 174.702L13.0278 174.686ZM165.408 172.585C165.257 172.588 165.118 172.501 165.053 172.365C165.025 172.308 165.011 172.248 165.011 172.189C165.011 172.045 165.09 171.907 165.227 171.838C166.195 171.35 167.133 170.878 168.031 170.406C168.224 170.306 168.462 170.382 168.562 170.575C168.592 170.633 168.606 170.695 168.606 170.756C168.606 170.898 168.529 171.036 168.393 171.106C167.495 171.57 166.558 172.05 165.581 172.538C165.528 172.568 165.469 172.584 165.408 172.585ZM171 169.682C170.855 169.684 170.721 169.605 170.653 169.477C170.622 169.418 170.608 169.354 170.608 169.292C170.608 169.152 170.681 169.016 170.811 168.942C171.788 168.423 172.709 167.919 173.576 167.447C173.699 167.36 173.862 167.351 173.994 167.424C174.12 167.494 174.197 167.626 174.197 167.768C174.197 167.776 174.197 167.783 174.197 167.791C174.188 167.942 174.094 168.074 173.954 168.132C173.087 168.612 172.166 169.115 171.181 169.643C171.132 169.667 171.078 169.681 171.024 169.682L171 169.682ZM11.9724 168.525C11.7637 168.526 11.5911 168.364 11.5786 168.156C11.5786 167.542 11.5312 166.912 11.5312 166.291L11.5312 164.977C11.5332 164.872 11.5781 164.772 11.6553 164.701C11.7327 164.629 11.8357 164.593 11.9409 164.599C12.0454 164.603 12.1438 164.649 12.2148 164.725C12.282 164.798 12.3193 164.893 12.3193 164.992C12.3193 164.997 12.3191 165.003 12.3188 165.008L12.3188 166.291C12.3188 166.897 12.3188 167.51 12.3662 168.108C12.3667 168.116 12.3669 168.125 12.3669 168.133C12.3669 168.229 12.3318 168.321 12.2678 168.394C12.1982 168.472 12.1006 168.519 11.9958 168.525L11.9724 168.525ZM176.514 166.637C176.337 166.635 176.183 166.516 176.137 166.346C176.128 166.312 176.124 166.277 176.124 166.244C176.124 166.107 176.195 165.977 176.317 165.905C177.333 165.323 178.246 164.796 179.034 164.332C179.124 164.277 179.232 164.26 179.334 164.285C179.436 164.31 179.524 164.375 179.578 164.465C179.615 164.529 179.633 164.599 179.633 164.667C179.633 164.802 179.565 164.932 179.444 165.008C178.656 165.48 177.734 166.015 176.71 166.582C176.657 166.612 176.598 166.631 176.537 166.637L176.514 166.637ZM12.248 162.254L12.1929 162.254C11.9941 162.224 11.8508 162.054 11.8508 161.858C11.8508 161.841 11.8518 161.823 11.8542 161.806C11.9958 160.775 12.1772 159.721 12.4133 158.659C12.4641 158.448 12.6736 158.315 12.886 158.359C12.9885 158.382 13.0779 158.445 13.1343 158.533C13.1743 158.597 13.1953 158.67 13.1953 158.744C13.1953 158.773 13.1919 158.803 13.1853 158.832C12.9568 159.847 12.7678 160.877 12.634 161.892C12.6177 162.094 12.4507 162.251 12.248 162.254ZM13.6187 156.125C13.5796 156.133 13.5393 156.133 13.5005 156.125C13.3997 156.094 13.3157 156.024 13.2668 155.931C13.2371 155.875 13.2219 155.812 13.2219 155.749C13.2219 155.709 13.228 155.668 13.2405 155.629C13.5476 154.638 13.9099 153.631 14.3118 152.639C14.4067 152.46 14.6223 152.383 14.8098 152.46C14.9607 152.522 15.0535 152.668 15.0535 152.824C15.0535 152.862 15.0479 152.9 15.0364 152.938C14.6504 153.906 14.2959 154.89 13.9888 155.865C13.9365 156.024 13.7859 156.13 13.6187 156.125ZM15.9814 150.302C15.9065 150.325 15.8264 150.322 15.7532 150.295C15.6589 150.249 15.5869 150.167 15.553 150.069C15.5386 150.027 15.5315 149.984 15.5315 149.941C15.5315 149.881 15.5452 149.822 15.572 149.767C16.0366 148.831 16.5486 147.895 17.092 146.982C17.1433 146.891 17.229 146.825 17.3298 146.798C17.4309 146.771 17.5383 146.787 17.6277 146.84C17.7529 146.916 17.8225 147.048 17.8225 147.185C17.8225 147.252 17.8054 147.321 17.7695 147.383C17.2339 148.272 16.7375 149.193 16.2808 150.122C16.2073 150.228 16.0872 150.292 15.9578 150.295L15.9814 150.302ZM19.1873 144.889C19.0833 144.892 18.9817 144.856 18.9038 144.787C18.8181 144.728 18.76 144.637 18.7422 144.535C18.7383 144.513 18.7366 144.491 18.7366 144.469C18.7366 144.389 18.7615 144.31 18.8091 144.244C19.4077 143.378 20.0537 142.521 20.7153 141.703C20.853 141.536 21.0989 141.512 21.2666 141.647C21.3638 141.725 21.4143 141.839 21.4143 141.955C21.4143 142.04 21.3867 142.126 21.3296 142.198C20.676 142.985 20.0459 143.843 19.4551 144.693C19.3933 144.799 19.2859 144.872 19.1636 144.889L19.1873 144.889ZM23.1255 140.011C22.9663 140.016 22.8198 139.924 22.7571 139.777C22.7361 139.729 22.7258 139.677 22.7258 139.626C22.7258 139.524 22.7661 139.424 22.842 139.35C23.5667 138.563 24.3306 137.839 25.1184 137.131C25.1909 137.057 25.2903 137.015 25.394 137.015C25.4978 137.015 25.5972 137.057 25.6697 137.131C25.7441 137.205 25.7861 137.306 25.7861 137.41C25.7861 137.515 25.7441 137.616 25.6697 137.69C24.8821 138.382 24.1494 139.114 23.4407 139.869C23.3623 139.961 23.2466 140.013 23.1255 140.011Z" clip-rule="evenodd" fill="#D1D3D4" fill-opacity="1.000000" fill-rule="evenodd"/>
	<path id="Path" d="M27.83 135.77C27.71 135.77 27.6 135.71 27.52 135.62C27.39 135.44 27.42 135.19 27.59 135.06C28.02 134.74 28.45 134.43 28.88 134.12C28.99 134.03 29.15 134.01 29.28 134.07C29.41 134.13 29.5 134.26 29.51 134.41C29.52 134.55 29.45 134.69 29.33 134.77C28.9 135.07 28.48 135.37 28.08 135.69C28 135.74 27.92 135.77 27.83 135.77Z" fill="#D1D3D4" fill-opacity="1.000000" fill-rule="nonzero"/>
	<path id="Path" d="M204.47 88.75C204.37 88.76 204.27 88.72 204.2 88.64C204.13 88.57 204.09 88.47 204.09 88.37C204.09 88.26 204.13 88.16 204.2 88.09C204.2 88.09 204.59 87.68 205.26 86.94C205.34 86.82 205.5 86.75 205.65 86.78C205.8 86.8 205.92 86.91 205.96 87.06C206 87.2 205.96 87.36 205.84 87.46C205.16 88.25 204.77 88.63 204.77 88.63C204.69 88.72 204.58 88.76 204.47 88.75Z" fill="#D1D3D4" fill-opacity="1.000000" fill-rule="nonzero"/>
	<path id="Shape" d="M207.626 85.2087C207.531 85.2083 207.439 85.1749 207.366 85.1143C207.292 85.0417 207.25 84.9425 207.25 84.8389C207.25 84.7352 207.292 84.636 207.366 84.5635C207.973 83.8396 208.65 82.9899 209.375 82.1165C209.51 81.9478 209.756 81.9197 209.926 82.0536C210.009 82.1172 210.062 82.2118 210.074 82.3156C210.076 82.3302 210.077 82.3448 210.077 82.3594C210.077 82.4482 210.046 82.535 209.989 82.6044C209.264 83.5171 208.579 84.3433 207.965 85.0671C207.883 85.1683 207.756 85.2216 207.626 85.2087ZM211.564 80.2517C211.48 80.2483 211.398 80.2209 211.328 80.1731C211.228 80.094 211.175 79.9763 211.175 79.8575C211.175 79.7726 211.202 79.687 211.257 79.6144C211.864 78.8276 212.494 77.962 213.132 77.073C213.258 76.8948 213.505 76.8525 213.683 76.9785C213.792 77.0555 213.85 77.1776 213.85 77.3015C213.85 77.3804 213.827 77.46 213.778 77.5293C213.132 78.4263 212.502 79.2839 211.879 80.0944C211.816 80.1919 211.712 80.2555 211.596 80.2675L211.564 80.2517ZM215.266 75.0823C215.119 75.0869 214.981 75.007 214.913 74.8763C214.883 74.8199 214.868 74.7583 214.868 74.697C214.868 74.6163 214.894 74.5361 214.943 74.4686C215.518 73.611 216.101 72.7297 216.668 71.817C216.786 71.6357 217.026 71.5801 217.212 71.6912C217.329 71.7664 217.392 71.8928 217.392 72.0221C217.392 72.0947 217.372 72.1683 217.33 72.234C216.787 73.1074 216.204 74.0044 215.597 74.9092C215.53 75.0099 215.419 75.0739 215.298 75.0823L215.266 75.0823ZM218.637 69.7004C218.568 69.7018 218.5 69.6826 218.441 69.6454C218.35 69.5944 218.283 69.5087 218.256 69.4078C218.248 69.3754 218.244 69.3422 218.244 69.3092C218.244 69.2397 218.262 69.1709 218.299 69.1104C218.834 68.1819 219.346 67.2456 219.811 66.3407C219.911 66.1473 220.149 66.0717 220.343 66.1715C220.479 66.2416 220.556 66.3793 220.556 66.522C220.556 66.5829 220.542 66.6448 220.512 66.7026C220.04 67.6233 219.52 68.5596 218.976 69.5038C218.912 69.6156 218.797 69.6891 218.669 69.7004L218.637 69.7004ZM221.56 64.059C221.505 64.0702 221.449 64.0702 221.394 64.059C221.299 64.0162 221.226 63.9369 221.19 63.8391C221.175 63.7965 221.167 63.752 221.167 63.7074C221.167 63.6499 221.18 63.5924 221.205 63.5397C221.654 62.5562 222.072 61.5804 222.434 60.6362C222.471 60.5377 222.546 60.4581 222.642 60.4153C222.739 60.3724 222.848 60.3698 222.946 60.4081C223.103 60.4706 223.199 60.6212 223.199 60.781C223.199 60.827 223.191 60.8738 223.174 60.9196C222.796 61.8794 222.387 62.8708 221.922 63.8622C221.851 63.9788 221.727 64.0525 221.591 64.059L221.56 64.059ZM223.852 58.1421L223.734 58.1421C223.565 58.0868 223.457 57.9299 223.457 57.7609C223.457 57.7229 223.462 57.6844 223.474 57.6464C223.789 56.6156 224.057 55.5928 224.261 54.6093C224.309 54.3994 224.515 54.2664 224.726 54.3102C224.912 54.3519 225.04 54.5171 225.04 54.7014C225.04 54.7255 225.038 54.7499 225.033 54.7744C224.813 55.7816 224.545 56.828 224.246 57.9218C224.177 58.0581 224.036 58.1434 223.883 58.1421L223.852 58.1421ZM225.175 51.9419L225.136 51.9419C224.932 51.9222 224.78 51.7512 224.78 51.5508C224.78 51.5396 224.78 51.5283 224.781 51.517C224.781 51.1865 224.844 50.8639 224.86 50.5334C224.86 49.8018 224.931 49.0779 224.955 48.3776L224.955 48.3772C224.955 48.2723 224.997 48.1719 225.073 48.0992C225.149 48.0265 225.251 47.9878 225.356 47.9921C225.572 48.0005 225.742 48.1775 225.742 48.3929L225.742 48.3933C225.742 49.1094 225.687 49.8333 225.648 50.5807C225.648 50.9191 225.6 51.2495 225.569 51.5878C225.545 51.7878 225.377 51.9393 225.175 51.9419ZM225.356 45.6001C225.142 45.6001 224.967 45.4287 224.962 45.2146C224.962 44.1445 224.884 43.0901 224.805 42.0673C224.804 42.0565 224.803 42.0458 224.803 42.0352C224.803 41.9426 224.837 41.8528 224.898 41.7825C224.966 41.704 225.063 41.6562 225.167 41.6503C225.272 41.6416 225.375 41.6749 225.455 41.7428C225.535 41.8108 225.584 41.9077 225.593 42.0122C225.671 43.043 225.726 44.113 225.75 45.1989L225.75 45.1991C225.75 45.4146 225.58 45.5917 225.364 45.6001L225.356 45.6001ZM224.844 39.3055C224.648 39.3041 224.481 39.161 224.45 38.9672C224.301 37.9128 224.104 36.8743 223.875 35.8828C223.869 35.8536 223.866 35.8246 223.866 35.7959C223.866 35.611 223.994 35.4443 224.183 35.4028C224.4 35.3551 224.615 35.4924 224.663 35.7097C224.892 36.7169 225.088 37.7791 225.246 38.8571C225.248 38.875 225.25 38.8928 225.25 38.9104C225.25 39.1031 225.11 39.2723 224.915 39.3055L224.844 39.3055ZM223.419 33.1368C223.248 33.139 223.095 33.031 223.041 32.8693C222.719 31.8789 222.343 30.9071 221.914 29.9581C221.89 29.9054 221.878 29.849 221.878 29.7928C221.878 29.7128 221.902 29.6331 221.95 29.5654C222.031 29.4503 222.168 29.3873 222.309 29.4001C222.449 29.413 222.572 29.4998 222.631 29.6276C223.072 30.6046 223.459 31.6055 223.789 32.6254C223.802 32.6666 223.809 32.7085 223.809 32.7496C223.809 32.9125 223.707 33.0646 223.545 33.1211C223.502 33.1257 223.46 33.123 223.419 33.1133L223.419 33.1368ZM220.788 27.3851C220.651 27.3862 220.524 27.318 220.449 27.2042C219.906 26.318 219.301 25.4713 218.637 24.6707C218.579 24.5978 218.55 24.5103 218.55 24.4233C218.55 24.3099 218.598 24.1976 218.693 24.1199C218.771 24.0516 218.875 24.0183 218.978 24.0271C219.082 24.036 219.178 24.0865 219.244 24.1671C219.928 24.9884 220.554 25.8561 221.119 26.7635C221.16 26.8269 221.182 26.9004 221.182 26.9749C221.182 27.0039 221.178 27.0332 221.172 27.0619C221.148 27.1644 221.083 27.2528 220.993 27.3065C220.931 27.344 220.86 27.3632 220.788 27.3616L220.788 27.3851ZM216.739 22.5305C216.645 22.5288 216.553 22.4956 216.479 22.436C215.704 21.745 214.877 21.1138 214.006 20.5477C213.883 20.4775 213.807 20.3469 213.807 20.2061L213.808 20.1941C213.812 20.0487 213.896 19.9175 214.027 19.8531C214.158 19.7888 214.313 19.8018 214.431 19.8867C215.338 20.4744 216.199 21.1293 217.007 21.8459C217.083 21.9238 217.12 22.0245 217.12 22.1252C217.12 22.2261 217.083 22.3268 217.007 22.4045C216.933 22.4705 216.838 22.5068 216.739 22.5068L216.739 22.5305ZM211.438 19.092C211.384 19.1029 211.328 19.1029 211.273 19.092C210.324 18.6606 209.348 18.2926 208.351 17.9905C208.21 17.9497 208.102 17.8372 208.067 17.6951C208.059 17.6626 208.055 17.6298 208.055 17.5972C208.055 17.4869 208.099 17.3798 208.181 17.3016C208.287 17.2003 208.438 17.163 208.579 17.2037C209.612 17.5128 210.622 17.8914 211.604 18.3367C211.699 18.3794 211.772 18.4587 211.808 18.5565C211.823 18.5991 211.831 18.6438 211.831 18.6882C211.831 18.7458 211.818 18.8032 211.793 18.8561C211.726 18.9894 211.588 19.0721 211.438 19.0685L211.438 19.092ZM205.373 17.243L205.302 17.243C204.273 17.0642 203.234 16.946 202.191 16.8889C202.087 16.8829 201.989 16.8354 201.919 16.7572C201.855 16.6851 201.82 16.5922 201.82 16.4962C201.82 16.4882 201.821 16.4801 201.821 16.4719L201.821 16.4689C201.821 16.3632 201.866 16.2625 201.946 16.1923C202.026 16.1213 202.132 16.0885 202.239 16.1022C203.311 16.1622 204.378 16.2831 205.437 16.4641C205.629 16.5001 205.764 16.6682 205.764 16.858C205.764 16.8787 205.763 16.8995 205.759 16.9204C205.718 17.0991 205.557 17.2241 205.373 17.2195L205.373 17.243Z" clip-rule="evenodd" fill="#D1D3D4" fill-opacity="1.000000" fill-rule="evenodd"/>
	<path id="Path" d="M197.44 17.01C197.3 17.02 197.16 16.96 197.08 16.84C197 16.72 196.99 16.57 197.05 16.45C197.11 16.32 197.23 16.23 197.37 16.22C197.9 16.14 198.42 16.09 198.95 16.07C199.17 16.05 199.35 16.22 199.37 16.44C199.38 16.65 199.21 16.84 199 16.85C198.04 16.91 197.48 16.99 197.48 16.99L197.44 17.01Z" fill="#D1D3D4" fill-opacity="1.000000" fill-rule="nonzero"/>
	<path id="Rectangle" d="M2.33 48.38L25.18 29.72C26.28 28.82 27.91 28.99 28.81 30.09L38.04 41.37C38.94 42.47 38.78 44.1 37.67 45L14.82 63.66C13.72 64.56 12.09 64.39 11.19 63.29L1.96 52.01C1.06 50.91 1.22 49.28 2.33 48.38Z" fill="#FFFFFF" fill-opacity="1.000000" fill-rule="nonzero"/>
	<path id="Shape" d="M13.1223 64.8693L12.8782 64.8693C12.2593 64.7994 11.6934 64.4884 11.3027 64.0038L1.29956 51.8081C0.891357 51.3206 0.697266 50.6893 0.760986 50.057C0.824707 49.4247 1.14087 48.8447 1.63818 48.4484L25.386 29.0532C25.874 28.6454 26.5061 28.4514 27.1392 28.515C27.772 28.5787 28.3525 28.8947 28.7495 29.3915L38.7212 41.5793C39.1294 42.0668 39.3235 42.6981 39.2598 43.3304C39.196 43.9628 38.8796 44.5427 38.3823 44.9391L14.6345 64.3264C14.2095 64.6782 13.6743 64.8704 13.1223 64.8693ZM25.8823 29.6591C26.1716 29.4307 26.5295 29.3059 26.8984 29.3049C27.3845 29.3042 27.844 29.5278 28.1428 29.9108L38.1145 42.0751C38.3899 42.4009 38.521 42.8245 38.4778 43.2485C38.4348 43.6727 38.2212 44.0613 37.8862 44.3253L14.1541 63.7206C13.8242 63.9873 13.4031 64.1144 12.9805 64.0746C12.5569 64.0341 12.1677 63.8241 11.9014 63.4923L1.92969 51.3124C1.66284 50.9797 1.53589 50.5565 1.5752 50.1321C1.60986 49.7125 1.81128 49.3243 2.13452 49.0542L25.8823 29.6591Z" clip-rule="evenodd" fill="#D1D3D4" fill-opacity="1.000000" fill-rule="evenodd"/>
	<path id="Path" d="M1.18 50.36C0.96 50.36 0.78 50.19 0.78 49.97C0.77 49.87 0.8 49.76 0.87 49.68C0.94 49.6 1.03 49.55 1.14 49.54L20.93 47.83L26.55 28.8C26.58 28.7 26.65 28.61 26.74 28.56C26.83 28.51 26.94 28.5 27.04 28.53C27.25 28.59 27.36 28.81 27.3 29.02L21.62 48.31C21.57 48.47 21.44 48.58 21.28 48.59L1.22 50.36L1.18 50.36Z" fill="#D1D3D4" fill-opacity="1.000000" fill-rule="nonzero"/>
	<path id="Path" d="M22.05 45.77C21.83 45.77 21.66 45.59 21.66 45.37C21.66 45.16 21.83 44.98 22.05 44.98L38.8 43.07C39.01 43.05 39.2 43.2 39.23 43.42C39.24 43.52 39.21 43.63 39.15 43.71C39.08 43.79 38.99 43.84 38.88 43.86L22.12 45.77L22.05 45.77Z" fill="#D1D3D4" fill-opacity="1.000000" fill-rule="nonzero"/>
	<path id="Path" d="M13.09 64.86C13.05 64.87 13.01 64.87 12.98 64.86C12.88 64.83 12.79 64.76 12.74 64.67C12.7 64.58 12.69 64.47 12.72 64.37L17.93 48.36C17.97 48.22 18.09 48.11 18.23 48.08C18.38 48.04 18.53 48.09 18.63 48.2C18.73 48.31 18.76 48.46 18.72 48.6L13.51 64.61C13.44 64.78 13.27 64.88 13.09 64.86Z" fill="#D1D3D4" fill-opacity="1.000000" fill-rule="nonzero"/>
	<path id="Rectangle" d="M217.62 104.8L239.39 114.23C240.44 114.69 240.93 115.91 240.47 116.96L235.8 127.71C235.35 128.76 234.13 129.24 233.08 128.78L211.31 119.35C210.26 118.9 209.77 117.68 210.23 116.63L214.9 105.88C215.35 104.83 216.57 104.35 217.62 104.8Z" fill="#FFFFFF" fill-opacity="1.000000" fill-rule="nonzero"/>
	<path id="Shape" d="M234.162 129.491C233.891 129.489 233.624 129.433 233.375 129.326L210.753 119.522C210.263 119.316 209.877 118.922 209.682 118.428C209.481 117.937 209.481 117.386 209.682 116.894L214.715 105.288C215.158 104.279 216.332 103.816 217.346 104.25L239.975 114.046C240.462 114.257 240.844 114.654 241.039 115.147C241.243 115.635 241.243 116.185 241.039 116.674L235.998 128.264C235.789 128.749 235.395 129.132 234.903 129.326C234.668 129.427 234.417 129.483 234.162 129.491ZM215.495 105.603C215.686 105.16 216.122 104.873 216.605 104.871C216.76 104.874 216.914 104.909 217.054 104.974L239.668 114.777C239.966 114.902 240.2 115.144 240.314 115.446C240.436 115.741 240.436 116.072 240.314 116.367L235.273 127.98C235.149 128.276 234.91 128.509 234.611 128.625C234.313 128.747 233.98 128.747 233.682 128.625L211.052 118.822C210.446 118.559 210.165 117.856 210.422 117.248L215.495 105.603Z" clip-rule="evenodd" fill="#D1D3D4" fill-opacity="1.000000" fill-rule="evenodd"/>
	<path id="Path" d="M224.74 118.61C224.6 118.62 224.48 118.55 224.41 118.43L215.74 104.76C215.63 104.57 215.68 104.33 215.87 104.21C216.05 104.1 216.3 104.16 216.41 104.34L224.9 117.79L240.54 114.79C240.64 114.77 240.75 114.79 240.84 114.84C240.92 114.9 240.98 114.99 241 115.1C241.04 115.31 240.9 115.52 240.69 115.56L224.79 118.61L224.74 118.61Z" fill="#D1D3D4" fill-opacity="1.000000" fill-rule="nonzero"/>
	<path id="Path" d="M234.61 129.42C234.48 129.42 234.36 129.35 234.28 129.24L226.74 118.03C226.62 117.85 226.67 117.61 226.85 117.49C226.93 117.43 227.04 117.41 227.14 117.43C227.25 117.45 227.34 117.51 227.39 117.6L234.94 128.84C235.06 129.02 235.01 129.27 234.83 129.39C234.76 129.42 234.69 129.43 234.61 129.42Z" fill="#D1D3D4" fill-opacity="1.000000" fill-rule="nonzero"/>
	<path id="Path" d="M210.1 118.82C209.91 118.82 209.74 118.68 209.71 118.49C209.69 118.38 209.72 118.28 209.78 118.19C209.84 118.11 209.94 118.05 210.04 118.04L223.43 115.85C223.57 115.83 223.71 115.88 223.8 115.99C223.89 116.1 223.92 116.25 223.87 116.39C223.81 116.52 223.7 116.62 223.56 116.64L210.17 118.83L210.1 118.82Z" fill="#D1D3D4" fill-opacity="1.000000" fill-rule="nonzero"/>
	<path id="Rectangle" d="M65.27 12.72L81.74 18.17C82.53 18.44 82.96 19.29 82.7 20.09L80 28.22C79.74 29.02 78.88 29.45 78.09 29.18L61.62 23.73C60.83 23.47 60.4 22.61 60.66 21.82L63.36 13.68C63.62 12.89 64.48 12.46 65.27 12.72Z" fill="#FFFFFF" fill-opacity="1.000000" fill-rule="nonzero"/>
	<path id="Shape" d="M78.2773 29.6591C78.4351 29.7108 78.5999 29.7373 78.7656 29.7377C79.4451 29.7384 80.0483 29.3038 80.2622 28.6598L83.1687 19.8789C83.4392 19.0579 82.9961 18.1726 82.1763 17.8961L65.0605 12.231C64.2388 11.9666 63.3569 12.4122 63.0835 13.2302L60.1692 22.0111C60.0388 22.4056 60.0701 22.8354 60.2559 23.2072C60.4419 23.5785 60.7676 23.8613 61.1616 23.9939L78.2773 29.6591ZM79.1201 28.9116C78.9285 28.9902 78.7134 28.9902 78.5215 28.9116L61.4294 23.2858C61.2322 23.2223 61.0681 23.0837 60.9727 22.9003C60.8977 22.7079 60.8977 22.4946 60.9727 22.3022L63.887 13.5214C63.9521 13.3274 64.0906 13.1665 64.2727 13.0729C64.4583 12.9788 64.6736 12.9618 64.8713 13.0256L81.9873 18.6908C82.1829 18.7579 82.344 18.8993 82.4363 19.0841C82.5149 19.2758 82.5149 19.4906 82.4363 19.6821L79.5139 28.4552C79.4485 28.6534 79.3069 28.8176 79.1201 28.9116Z" clip-rule="evenodd" fill="#D1D3D4" fill-opacity="1.000000" fill-rule="evenodd"/>
	<path id="Path" d="M71.32 22.43C71.19 22.43 71.08 22.37 71 22.27L63.8 12.88C63.68 12.71 63.72 12.47 63.88 12.35C64.05 12.22 64.28 12.24 64.42 12.4L71.44 21.58L82.56 18.43C82.66 18.41 82.77 18.42 82.86 18.47C82.95 18.52 83.02 18.61 83.05 18.71C83.1 18.92 82.98 19.13 82.77 19.19L71.4 22.45L71.32 22.43Z" fill="#D1D3D4" fill-opacity="1.000000" fill-rule="nonzero"/>
	<path id="Path" d="M79.21 29.65C79.09 29.66 78.98 29.6 78.9 29.5L72.68 21.81C72.54 21.64 72.57 21.39 72.74 21.25C72.91 21.12 73.16 21.14 73.29 21.31L79.52 29.02C79.65 29.19 79.62 29.43 79.45 29.57C79.38 29.62 79.3 29.65 79.21 29.65Z" fill="#D1D3D4" fill-opacity="1.000000" fill-rule="nonzero"/>
	<path id="Path" d="M60.64 23.52C60.5 23.53 60.36 23.47 60.28 23.36C60.19 23.25 60.18 23.1 60.23 22.97C60.29 22.84 60.41 22.75 60.55 22.73L70.14 20.28C70.25 20.25 70.35 20.26 70.44 20.32C70.53 20.37 70.6 20.46 70.62 20.56C70.65 20.66 70.63 20.77 70.58 20.85C70.53 20.94 70.44 21.01 70.34 21.03L60.75 23.49L60.64 23.52Z" fill="#D1D3D4" fill-opacity="1.000000" fill-rule="nonzero"/>
</svg>
